<svg width="30" height="30" viewBox="0 0 30 30" fill="none" xmlns="http://www.w3.org/2000/svg">
<path d="M15 7.8C13.576 7.8 12.1839 8.22227 10.9999 9.01342C9.81586 9.80457 8.89302 10.9291 8.34807 12.2447C7.80312 13.5603 7.66053 15.008 7.93835 16.4047C8.21616 17.8013 8.90189 19.0842 9.90883 20.0912C10.9158 21.0981 12.1987 21.7838 13.5954 22.0617C14.992 22.3395 16.4397 22.1969 17.7553 21.6519C19.0709 21.107 20.1954 20.1841 20.9866 19.0001C21.7777 17.8161 22.2 16.424 22.2 15C22.2 13.0904 21.4414 11.2591 20.0912 9.90883C18.7409 8.55857 16.9096 7.8 15 7.8ZM15 19.8C14.0507 19.8 13.1226 19.5185 12.3333 18.9911C11.5439 18.4636 10.9287 17.714 10.5654 16.8369C10.2021 15.9598 10.107 14.9947 10.2922 14.0636C10.4774 13.1325 10.9346 12.2772 11.6059 11.6059C12.2772 10.9346 13.1325 10.4774 14.0636 10.2922C14.9947 10.107 15.9598 10.2021 16.8369 10.5654C17.714 10.9287 18.4636 11.5439 18.9911 12.3333C19.5185 13.1226 19.8 14.0507 19.8 15C19.796 16.2718 19.2891 17.4904 18.3897 18.3897C17.4904 19.2891 16.2718 19.796 15 19.8ZM21.6 0H8.4C6.17218 0 4.03561 0.884997 2.4603 2.4603C0.884997 4.03561 0 6.17218 0 8.4V21.6C0 23.8278 0.884997 25.9644 2.4603 27.5397C4.03561 29.115 6.17218 30 8.4 30H21.6C23.8278 30 25.9644 29.115 27.5397 27.5397C29.115 25.9644 30 23.8278 30 21.6V8.4C30 6.17218 29.115 4.03561 27.5397 2.4603C25.9644 0.884997 23.8278 0 21.6 0ZM27.6 21.6C27.6 22.3879 27.4448 23.1681 27.1433 23.8961C26.8418 24.6241 26.3998 25.2855 25.8426 25.8426C25.2855 26.3998 24.6241 26.8418 23.8961 27.1433C23.1681 27.4448 22.3879 27.6 21.6 27.6H8.4C7.61207 27.6 6.83185 27.4448 6.1039 27.1433C5.37595 26.8418 4.71451 26.3998 4.15736 25.8426C3.60021 25.2855 3.15825 24.6241 2.85672 23.8961C2.55519 23.1681 2.4 22.3879 2.4 21.6V8.4C2.4 6.8087 3.03214 5.28258 4.15736 4.15736C5.28258 3.03214 6.8087 2.4 8.4 2.4H21.6C22.3879 2.4 23.1681 2.55519 23.8961 2.85672C24.6241 3.15825 25.2855 3.60021 25.8426 4.15736C26.3998 4.71451 26.8418 5.37595 27.1433 6.1039C27.4448 6.83185 27.6 7.61207 27.6 8.4V21.6ZM24.6 7.2C24.6 7.55601 24.4944 7.90402 24.2966 8.20003C24.0989 8.49603 23.8177 8.72675 23.4888 8.86298C23.1599 8.99922 22.798 9.03487 22.4488 8.96541C22.0997 8.89596 21.7789 8.72453 21.5272 8.47279C21.2755 8.22106 21.104 7.90033 21.0346 7.55116C20.9651 7.202 21.0008 6.84008 21.137 6.51117C21.2733 6.18226 21.504 5.90114 21.8 5.70335C22.096 5.50557 22.444 5.4 22.8 5.4C23.2774 5.4 23.7352 5.58964 24.0728 5.92721C24.4104 6.26477 24.6 6.72261 24.6 7.2Z" fill="white"/>
</svg>
