<svg width="30" height="30" viewBox="0 0 30 30" fill="none" xmlns="http://www.w3.org/2000/svg">
<path d="M21.5 16.695V22.2405H18.2855V17.0655C18.2855 15.7665 17.8205 14.88 16.6565 14.88C15.7685 14.88 15.239 15.477 15.0065 16.056C14.9225 16.263 14.9 16.551 14.9 16.839V22.2405H11.684C11.684 22.2405 11.7275 13.4775 11.684 12.57H14.9V13.9395L14.879 13.971H14.9V13.941C15.3275 13.281 16.0895 12.342 17.798 12.342C19.913 12.342 21.5 13.725 21.5 16.695ZM8.3195 7.90649C7.22 7.90649 6.5 8.62949 6.5 9.57749C6.5 10.5075 7.199 11.25 8.2775 11.25H8.2985C9.4205 11.25 10.118 10.506 10.118 9.57749C10.097 8.62949 9.4205 7.90649 8.3195 7.90649ZM6.6905 22.2405H9.9065V12.57H6.6905V22.2405Z" fill="white"/>
<path d="M15 27C18.1826 27 21.2348 25.7357 23.4853 23.4853C25.7357 21.2348 27 18.1826 27 15C27 11.8174 25.7357 8.76515 23.4853 6.51472C21.2348 4.26428 18.1826 3 15 3C11.8174 3 8.76515 4.26428 6.51472 6.51472C4.26428 8.76515 3 11.8174 3 15C3 18.1826 4.26428 21.2348 6.51472 23.4853C8.76515 25.7357 11.8174 27 15 27ZM15 30C6.7155 30 0 23.2845 0 15C0 6.7155 6.7155 0 15 0C23.2845 0 30 6.7155 30 15C30 23.2845 23.2845 30 15 30Z" fill="white"/>
</svg>
