<svg width="30" height="30" viewBox="0 0 30 30" fill="none" xmlns="http://www.w3.org/2000/svg">
<path d="M7.87951 24.741L8.96552 25.3755C10.7969 26.4436 12.8799 27.0043 15 27C17.3734 27 19.6935 26.2962 21.6668 24.9776C23.6402 23.659 25.1783 21.7849 26.0866 19.5922C26.9948 17.3995 27.2325 14.9867 26.7694 12.6589C26.3064 10.3311 25.1635 8.19294 23.4853 6.51471C21.8071 4.83649 19.6689 3.6936 17.3411 3.23057C15.0133 2.76755 12.6005 3.00519 10.4078 3.91344C8.2151 4.82169 6.34096 6.35976 5.02238 8.33315C3.70381 10.3065 3.00002 12.6266 3.00002 15C2.99564 17.1208 3.55693 19.2044 4.62602 21.036L5.25902 22.122L4.27952 25.7235L7.87951 24.741ZM0.00602007 30L2.03402 22.548C0.697727 20.2573 -0.00433595 17.652 2.01484e-05 15C2.01484e-05 6.7155 6.71552 0 15 0C23.2845 0 30 6.7155 30 15C30 23.2845 23.2845 30 15 30C12.3492 30.0043 9.745 29.3027 7.45502 27.9675L0.00602007 30ZM9.58651 7.962C9.78751 7.947 9.99001 7.94699 10.191 7.95599C10.272 7.96199 10.353 7.971 10.434 7.98C10.6725 8.007 10.935 8.15249 11.0235 8.35349C11.4705 9.36749 11.9055 10.389 12.3255 11.4135C12.4185 11.6415 12.363 11.934 12.186 12.219C12.0643 12.4117 11.9326 12.598 11.7915 12.777C11.622 12.9945 11.2575 13.3935 11.2575 13.3935C11.2575 13.3935 11.109 13.5705 11.166 13.791C11.187 13.875 11.256 13.9965 11.319 14.0985L11.4075 14.241C11.7915 14.8815 12.3075 15.531 12.9375 16.143C13.1175 16.317 13.293 16.4955 13.482 16.662C14.184 17.2815 14.979 17.787 15.837 18.162L15.8445 18.165C15.972 18.2205 16.0365 18.2505 16.2225 18.33C16.3155 18.369 16.4115 18.4035 16.509 18.429C16.6098 18.4546 16.7159 18.4498 16.8139 18.4151C16.9119 18.3804 16.9974 18.3174 17.0595 18.234C18.1455 16.9185 18.2445 16.833 18.2535 16.833V16.836C18.329 16.7656 18.4186 16.7122 18.5164 16.6794C18.6142 16.6465 18.7179 16.635 18.8205 16.6455C18.9105 16.6515 19.002 16.668 19.086 16.7055C19.8825 17.07 21.186 17.6385 21.186 17.6385L22.059 18.03C22.206 18.1005 22.3395 18.267 22.344 18.4275C22.35 18.528 22.359 18.69 22.3245 18.987C22.2765 19.3755 22.1595 19.842 22.0425 20.0865C21.9624 20.2533 21.856 20.4063 21.7275 20.5395C21.5761 20.6984 21.4104 20.843 21.2325 20.9715C21.1709 21.0178 21.1084 21.0628 21.045 21.1065C20.8584 21.2249 20.6668 21.335 20.4705 21.4365C20.0843 21.6416 19.6578 21.7594 19.221 21.7815C18.9435 21.7965 18.666 21.8175 18.387 21.8025C18.375 21.8025 17.535 21.672 17.535 21.672C15.4024 21.111 13.4301 20.0602 11.775 18.603C11.436 18.3045 11.1225 17.9835 10.8015 17.664C9.46651 16.3365 8.45851 14.904 7.84652 13.551C7.53327 12.8869 7.36406 12.1641 7.35002 11.43C7.34383 10.5193 7.64154 9.63249 8.19602 8.90999C8.30552 8.76899 8.40901 8.62199 8.58751 8.45249C8.77801 8.2725 8.89801 8.17649 9.02851 8.11049C9.20203 8.02354 9.39131 7.97252 9.58501 7.96049L9.58651 7.962Z" fill="white"/>
</svg>
